<svg width="48" height="48" viewBox="0 0 48 48" fill="none" xmlns="http://www.w3.org/2000/svg">
  <circle cx="24" cy="24" r="24" fill="white" />
  <path d="M24.0783 39.9116V31.9275L14.2017 26.1517L24.0783 39.9116Z" fill="#F0CDC2" />
  <path fill-rule="evenodd" clip-rule="evenodd" d="M14.1363 26.0922C14.1644 26.0614 14.2103 26.0544 14.2463 26.0754L24.1229 31.8512C24.1501 31.867 24.1667 31.8961 24.1667 31.9275V39.9116C24.1667 39.95 24.1419 39.984 24.1054 39.9957C24.0688 40.0075 24.0289 39.9943 24.0065 39.9631L14.1299 26.2033C14.1055 26.1694 14.1082 26.1231 14.1363 26.0922ZM14.5159 26.4379L23.9899 39.6368V31.9782L14.5159 26.4379Z" fill="#1616B4" />
  <path d="M24.1108 39.9116V31.9275L33.9874 26.1517L24.1108 39.9116Z" fill="#C9B3F5" />
  <path fill-rule="evenodd" clip-rule="evenodd" d="M34.0528 26.0922C34.0809 26.1231 34.0836 26.1694 34.0592 26.2033L24.1827 39.9631C24.1603 39.9943 24.1203 40.0075 24.0838 39.9957C24.0472 39.984 24.0225 39.95 24.0225 39.9116V31.9275C24.0225 31.8961 24.0391 31.867 24.0662 31.8512L33.9428 26.0754C33.9788 26.0544 34.0247 26.0614 34.0528 26.0922ZM24.1993 31.9782V39.6368L33.6732 26.4379L24.1993 31.9782Z" fill="#1616B4" />
  <path d="M24.0783 29.943V19.7532L14.0884 24.2265L24.0783 29.943Z" fill="#88AAF1" />
  <path fill-rule="evenodd" clip-rule="evenodd" d="M24.1264 19.6789C24.1515 19.6952 24.1667 19.7231 24.1667 19.7531V29.9429C24.1667 29.9744 24.1499 30.0036 24.1227 30.0194C24.0954 30.0352 24.0618 30.0353 24.0344 30.0197L14.0445 24.3032C14.0156 24.2866 13.9985 24.2553 14.0001 24.2221C14.0017 24.1888 14.0219 24.1594 14.0523 24.1458L24.0422 19.6724C24.0695 19.6601 24.1012 19.6626 24.1264 19.6789ZM14.2832 24.2361L23.9899 29.7905V19.8895L14.2832 24.2361Z" fill="#1616B4" />
  <path d="M24.1108 29.943V19.7532L34.1008 24.2265L24.1108 29.943Z" fill="#C9B3F5" />
  <path fill-rule="evenodd" clip-rule="evenodd" d="M24.0628 19.6789C24.0879 19.6626 24.1196 19.6601 24.147 19.6724L34.1369 24.1458C34.1673 24.1594 34.1875 24.1888 34.1891 24.2221C34.1907 24.2553 34.1736 24.2866 34.1447 24.3032L24.1548 30.0197C24.1274 30.0353 24.0938 30.0352 24.0665 30.0194C24.0392 30.0036 24.0225 29.9744 24.0225 29.9429V19.7531C24.0225 19.7231 24.0376 19.6952 24.0628 19.6789ZM24.1993 19.8895V29.7905L33.906 24.2361L24.1993 19.8895Z" fill="#1616B4" />
  <path d="M14.0884 24.2265L24.0783 8.08838V19.7531L14.0884 24.2265Z" fill="#F0CDC2" />
  <path fill-rule="evenodd" clip-rule="evenodd" d="M24.1025 8.00338C24.1405 8.01419 24.1667 8.0489 24.1667 8.08841V19.7531C24.1667 19.788 24.1462 19.8196 24.1144 19.8338L14.1245 24.3072C14.0891 24.323 14.0474 24.3139 14.0219 24.2847C13.9963 24.2555 13.9928 24.213 14.0132 24.18L24.0031 8.04188C24.0239 8.00829 24.0645 7.99257 24.1025 8.00338ZM14.3152 24.0281L23.9899 19.6959V8.39915L14.3152 24.0281Z" fill="#1616B4" />
  <path d="M34.1007 24.2265L24.1108 8.08838V19.7531L34.1007 24.2265Z" fill="#B8FAF6" />
  <path fill-rule="evenodd" clip-rule="evenodd" d="M24.0867 8.00338C24.1247 7.99257 24.1652 8.00829 24.186 8.04188L34.1759 24.18C34.1964 24.213 34.1929 24.2555 34.1673 24.2847C34.1417 24.3139 34.1001 24.323 34.0646 24.3072L24.0747 19.8338C24.0429 19.8196 24.0225 19.788 24.0225 19.7531V8.08841C24.0225 8.0489 24.0487 8.01419 24.0867 8.00338ZM24.1993 8.39915V19.6959L33.874 24.0281L24.1993 8.39915Z" fill="#1616B4" />
</svg>
  