<svg width="48" height="48" viewBox="0 0 48 48" fill="none" xmlns="http://www.w3.org/2000/svg">
  <rect width="48" height="48" rx="24" fill="white" />
  <path d="M27.4606 20.5345H20.5347V27.4574H27.4606V20.5345Z" fill="#F8BD00" />
  <path d="M34.1558 17.2191V31.215C34.1558 31.9946 33.8463 32.7423 33.2952 33.2939C32.7441 33.8455 31.9965 34.156 31.2166 34.1571H17.2104V30.935H30.9324V17.2191H34.1558Z" fill="#3F3C37" />
  <path d="M30.7898 17.0648V13.8428H16.7796C16.0004 13.8438 15.2534 14.1537 14.7024 14.7045C14.1514 15.2552 13.8414 16.0019 13.8403 16.7807V30.7807H17.0638V17.0648H30.7898Z" fill="#3F3C37" />
  <path d="M37.9998 10H34.1553V13.8429H37.9998V10Z" fill="#00B6DE" />
  <path d="M13.8446 34.1571H10V38H13.8446V34.1571Z" fill="#E30065" />
</svg>
  