<svg width="54" height="54" viewBox="0 0 54 54" fill="none" xmlns="http://www.w3.org/2000/svg">
  <rect width="54" height="54" fill="#7B3FE4" />
  <mask id="mask0_117_645" style="mask-type:alpha" maskUnits="userSpaceOnUse" x="0" y="0" width="54" height="54">
    <rect width="54" height="54" fill="#7B3FE4" />
  </mask>
  <g mask="url(#mask0_117_645)"></g>
  <g clip-path="url(#clip0_117_645)">
    <path d="M46.0081 27.629V35.9168C46.0001 36.4327 45.859 36.9384 45.5976 37.3884C45.3275 37.8345 44.9444 38.2071 44.4844 38.471L37.0628 42.5959C36.6032 42.8604 36.078 43.0001 35.5429 43.0001C35.0079 43.0001 34.4827 42.8604 34.0231 42.5959L26.6015 38.471C26.1415 38.2071 25.7584 37.8345 25.4883 37.3884C25.2269 36.9384 25.0858 36.4327 25.0777 35.9168V33.6295L28.8833 31.4413V35.4822L35.5311 39.203L42.1789 35.4822V28.0636L35.5311 24.3352L19.9537 33.05C19.4891 33.3047 18.9641 33.4385 18.4299 33.4385C17.8957 33.4385 17.3707 33.3047 16.9061 33.05L9.48456 28.9099C9.0315 28.6441 8.65855 28.2681 8.40291 27.8196C8.13113 27.3759 7.98416 26.8712 7.97656 26.3557V18.0831C7.98434 17.561 8.13438 17.05 8.41157 16.6016C8.68877 16.1533 9.08335 15.7833 9.55562 15.5289L16.9772 11.4041C17.4368 11.1395 17.962 10.9999 18.497 10.9999C19.0321 10.9999 19.5572 11.1395 20.0169 11.4041L27.4384 15.5289C27.9004 15.79 28.2839 16.163 28.5511 16.6109C28.8184 17.0588 28.96 17.5662 28.9622 18.0831V20.4086L25.1014 22.5206V18.4796L18.4536 14.7512L11.8058 18.4796V25.9059L18.4536 29.6342L34.031 20.95C34.4956 20.6953 35.0206 20.5615 35.5548 20.5615C36.089 20.5615 36.614 20.6953 37.0786 20.95L44.5001 25.0977C44.9592 25.3579 45.338 25.7316 45.5976 26.1804C45.8609 26.6212 46.0023 27.1201 46.0081 27.629V27.629Z" fill="white" />
  </g>
  <defs>
    <clipPath id="clip0_117_645">
      <rect width="38" height="32" fill="white" transform="translate(8 11)" />
    </clipPath>
  </defs>
</svg>
  