<svg width="48" height="48" viewBox="0 0 48 48" fill="none" xmlns="http://www.w3.org/2000/svg">
<path d="M0 24C0 37.2548 10.7452 48 24 48C37.2548 48 48 37.2548 48 24C48 10.7452 37.2548 0 24 0C10.7452 0 0 10.7452 0 24Z" fill="black"/>
<path d="M27.6863 19.75H20.3196C20.0066 19.75 19.7529 20.0037 19.7529 20.3165V27.6832C19.7529 27.9962 20.0066 28.2499 20.3196 28.2499H27.6863C27.9992 28.2499 28.253 27.9962 28.253 27.6832V20.3165C28.253 20.0037 27.9992 19.75 27.6863 19.75Z" fill="white"/>
<path d="M19.1833 11.25H11.8167C11.5037 11.25 11.25 11.5037 11.25 11.8167V19.1833C11.25 19.4962 11.5037 19.7501 11.8167 19.7501H19.1833C19.4962 19.7501 19.7501 19.4962 19.7501 19.1833V11.8167C19.7501 11.5037 19.4962 11.25 19.1833 11.25Z" fill="white"/>
<path d="M36.1834 11.25H28.8167C28.5038 11.25 28.25 11.5037 28.25 11.8167V19.1833C28.25 19.4962 28.5038 19.7501 28.8167 19.7501H36.1834C36.4964 19.7501 36.7501 19.4962 36.7501 19.1833V11.8167C36.7501 11.5037 36.4964 11.25 36.1834 11.25Z" fill="white"/>
<path d="M19.1833 28.25H11.8167C11.5037 28.25 11.25 28.5038 11.25 28.8167V36.1834C11.25 36.4964 11.5037 36.7501 11.8167 36.7501H19.1833C19.4962 36.7501 19.7501 36.4964 19.7501 36.1834V28.8167C19.7501 28.5038 19.4962 28.25 19.1833 28.25Z" fill="white"/>
<path d="M36.1834 28.25H28.8167C28.5038 28.25 28.25 28.5038 28.25 28.8167V36.1834C28.25 36.4964 28.5038 36.7501 28.8167 36.7501H36.1834C36.4964 36.7501 36.7501 36.4964 36.7501 36.1834V28.8167C36.7501 28.5038 36.4964 28.25 36.1834 28.25Z" fill="white"/>
</svg>
