<svg width="238" height="14" viewBox="0 0 238 14" fill="none" xmlns="http://www.w3.org/2000/svg">
<path d="M4.13 11.14C3.44867 11.14 2.83733 10.972 2.296 10.636C1.764 10.3 1.33933 9.84267 1.022 9.264C0.714 8.68533 0.56 8.03667 0.56 7.318C0.56 6.59933 0.714 5.95067 1.022 5.372C1.33933 4.79333 1.764 4.336 2.296 4C2.83733 3.664 3.44867 3.496 4.13 3.496C4.78333 3.496 5.376 3.63133 5.908 3.902C6.44933 4.16333 6.86 4.52267 7.14 4.98L6.342 5.96C6.19267 5.74533 6.00133 5.54933 5.768 5.372C5.53467 5.19467 5.28733 5.05467 5.026 4.952C4.76467 4.84933 4.51267 4.798 4.27 4.798C3.822 4.798 3.42067 4.91 3.066 5.134C2.72067 5.34867 2.44533 5.64733 2.24 6.03C2.03467 6.41267 1.932 6.842 1.932 7.318C1.932 7.794 2.03933 8.22333 2.254 8.606C2.46867 8.97933 2.75333 9.278 3.108 9.502C3.46267 9.726 3.85467 9.838 4.284 9.838C4.536 9.838 4.77867 9.796 5.012 9.712C5.25467 9.628 5.488 9.502 5.712 9.334C5.936 9.166 6.146 8.96067 6.342 8.718L7.14 9.698C6.84133 10.118 6.412 10.4633 5.852 10.734C5.30133 11.0047 4.72733 11.14 4.13 11.14ZM11.8042 11.14C11.0855 11.14 10.4415 10.9767 9.87219 10.65C9.31219 10.314 8.86885 9.86133 8.54219 9.292C8.21552 8.71333 8.05219 8.05533 8.05219 7.318C8.05219 6.58067 8.21552 5.92733 8.54219 5.358C8.86885 4.77933 9.31219 4.32667 9.87219 4C10.4415 3.664 11.0855 3.496 11.8042 3.496C12.5135 3.496 13.1482 3.664 13.7082 4C14.2775 4.32667 14.7255 4.77933 15.0522 5.358C15.3789 5.92733 15.5422 6.58067 15.5422 7.318C15.5422 8.05533 15.3789 8.71333 15.0522 9.292C14.7255 9.86133 14.2775 10.314 13.7082 10.65C13.1482 10.9767 12.5135 11.14 11.8042 11.14ZM11.8042 9.824C12.2429 9.824 12.6349 9.71667 12.9802 9.502C13.3255 9.278 13.5962 8.97933 13.7922 8.606C13.9882 8.22333 14.0815 7.794 14.0722 7.318C14.0815 6.83267 13.9882 6.40333 13.7922 6.03C13.5962 5.64733 13.3255 5.34867 12.9802 5.134C12.6349 4.91933 12.2429 4.812 11.8042 4.812C11.3655 4.812 10.9689 4.924 10.6142 5.148C10.2689 5.36267 9.99819 5.66133 9.80219 6.044C9.60619 6.41733 9.51285 6.842 9.52219 7.318C9.51285 7.794 9.60619 8.22333 9.80219 8.606C9.99819 8.97933 10.2689 9.278 10.6142 9.502C10.9689 9.71667 11.3655 9.824 11.8042 9.824ZM17.1135 11V3.65H18.5555V5.162L18.3035 5.33C18.3968 5.00333 18.5788 4.70467 18.8495 4.434C19.1201 4.154 19.4421 3.93 19.8155 3.762C20.1888 3.58467 20.5715 3.496 20.9635 3.496C21.5235 3.496 21.9901 3.608 22.3635 3.832C22.7368 4.04667 23.0168 4.378 23.2035 4.826C23.3901 5.274 23.4835 5.83867 23.4835 6.52V11H22.0415V6.618C22.0415 6.198 21.9855 5.85267 21.8735 5.582C21.7615 5.302 21.5888 5.10133 21.3555 4.98C21.1221 4.84933 20.8328 4.79333 20.4875 4.812C20.2075 4.812 19.9508 4.85867 19.7175 4.952C19.4841 5.036 19.2788 5.15733 19.1015 5.316C18.9335 5.47467 18.7981 5.66133 18.6955 5.876C18.6021 6.08133 18.5555 6.30533 18.5555 6.548V11H17.8415C17.7201 11 17.5988 11 17.4775 11C17.3561 11 17.2348 11 17.1135 11ZM27.8896 11.14C27.2736 11.14 26.7183 11.0327 26.2236 10.818C25.729 10.6033 25.3183 10.286 24.9916 9.866L25.9716 9.026C26.2516 9.35267 26.555 9.59067 26.8816 9.74C27.2176 9.88 27.5956 9.95 28.0156 9.95C28.1836 9.95 28.3376 9.93133 28.4776 9.894C28.627 9.84733 28.753 9.782 28.8556 9.698C28.9676 9.614 29.0516 9.516 29.1076 9.404C29.1636 9.28267 29.1916 9.152 29.1916 9.012C29.1916 8.76933 29.103 8.57333 28.9256 8.424C28.8323 8.35867 28.683 8.28867 28.4776 8.214C28.2816 8.13 28.025 8.046 27.7076 7.962C27.1663 7.822 26.723 7.66333 26.3776 7.486C26.0323 7.30867 25.7663 7.108 25.5796 6.884C25.4396 6.70667 25.337 6.51533 25.2716 6.31C25.2063 6.09533 25.1736 5.862 25.1736 5.61C25.1736 5.302 25.239 5.022 25.3696 4.77C25.5096 4.50867 25.6963 4.28467 25.9296 4.098C26.1723 3.902 26.4523 3.75267 26.7696 3.65C27.0963 3.54733 27.4416 3.496 27.8056 3.496C28.151 3.496 28.4916 3.54267 28.8276 3.636C29.173 3.72933 29.4903 3.86467 29.7796 4.042C30.069 4.21933 30.3116 4.42933 30.5076 4.672L29.6816 5.582C29.5043 5.40467 29.3083 5.25067 29.0936 5.12C28.8883 4.98 28.6783 4.87267 28.4636 4.798C28.249 4.72333 28.053 4.686 27.8756 4.686C27.6796 4.686 27.5023 4.70467 27.3436 4.742C27.185 4.77933 27.0496 4.83533 26.9376 4.91C26.835 4.98467 26.7556 5.078 26.6996 5.19C26.6436 5.302 26.6156 5.428 26.6156 5.568C26.625 5.68933 26.653 5.806 26.6996 5.918C26.7556 6.02067 26.8303 6.10933 26.9236 6.184C27.0263 6.25867 27.1803 6.338 27.3856 6.422C27.591 6.506 27.8523 6.58533 28.1696 6.66C28.6363 6.78133 29.019 6.91667 29.3176 7.066C29.6256 7.206 29.8683 7.36933 30.0456 7.556C30.2323 7.73333 30.363 7.93867 30.4376 8.172C30.5123 8.40533 30.5496 8.66667 30.5496 8.956C30.5496 9.376 30.4283 9.754 30.1856 10.09C29.9523 10.4167 29.635 10.6733 29.2336 10.86C28.8323 11.0467 28.3843 11.14 27.8896 11.14ZM33.0489 11V1.774H34.4909V11H33.0489ZM31.5229 5.05V3.65H36.1989V5.05H31.5229ZM41.4357 11V3.65H42.8917V5.96L42.7517 5.4C42.8544 5.04533 43.0271 4.72333 43.2697 4.434C43.5217 4.14467 43.8064 3.916 44.1237 3.748C44.4504 3.58 44.7864 3.496 45.1317 3.496C45.2904 3.496 45.4397 3.51 45.5797 3.538C45.7291 3.566 45.8457 3.59867 45.9297 3.636L45.5517 5.204C45.4397 5.15733 45.3137 5.12 45.1737 5.092C45.0431 5.05467 44.9124 5.036 44.7817 5.036C44.5297 5.036 44.2871 5.08733 44.0537 5.19C43.8297 5.28333 43.6291 5.41867 43.4517 5.596C43.2837 5.764 43.1484 5.96467 43.0457 6.198C42.9431 6.422 42.8917 6.66933 42.8917 6.94V11H41.4357ZM50.1978 11.14C49.4418 11.14 48.7698 10.9813 48.1818 10.664C47.6031 10.3373 47.1458 9.894 46.8098 9.334C46.4831 8.774 46.3198 8.13 46.3198 7.402C46.3198 6.82333 46.4131 6.296 46.5998 5.82C46.7864 5.344 47.0431 4.93333 47.3698 4.588C47.7058 4.23333 48.1024 3.96267 48.5598 3.776C49.0264 3.58 49.5304 3.482 50.0718 3.482C50.5478 3.482 50.9911 3.57533 51.4018 3.762C51.8124 3.93933 52.1671 4.18667 52.4658 4.504C52.7738 4.82133 53.0071 5.19933 53.1658 5.638C53.3338 6.06733 53.4131 6.53867 53.4038 7.052L53.3898 7.668H47.3838L47.0618 6.52H52.1438L51.9338 6.758V6.422C51.9058 6.114 51.8031 5.83867 51.6258 5.596C51.4484 5.35333 51.2244 5.162 50.9538 5.022C50.6831 4.882 50.3891 4.812 50.0718 4.812C49.5678 4.812 49.1431 4.91 48.7978 5.106C48.4524 5.29267 48.1911 5.57267 48.0138 5.946C47.8364 6.31 47.7478 6.76267 47.7478 7.304C47.7478 7.81733 47.8551 8.26533 48.0698 8.648C48.2844 9.02133 48.5878 9.31067 48.9798 9.516C49.3718 9.72133 49.8244 9.824 50.3378 9.824C50.7018 9.824 51.0378 9.76333 51.3458 9.642C51.6631 9.52067 52.0038 9.30133 52.3678 8.984L53.0958 10.006C52.8718 10.23 52.5964 10.426 52.2698 10.594C51.9524 10.762 51.6118 10.8973 51.2478 11C50.8931 11.0933 50.5431 11.14 50.1978 11.14ZM57.4209 11.14C56.8049 11.14 56.2496 11.0327 55.7549 10.818C55.2602 10.6033 54.8496 10.286 54.5229 9.866L55.5029 9.026C55.7829 9.35267 56.0862 9.59067 56.4129 9.74C56.7489 9.88 57.1269 9.95 57.5469 9.95C57.7149 9.95 57.8689 9.93133 58.0089 9.894C58.1582 9.84733 58.2842 9.782 58.3869 9.698C58.4989 9.614 58.5829 9.516 58.6389 9.404C58.6949 9.28267 58.7229 9.152 58.7229 9.012C58.7229 8.76933 58.6342 8.57333 58.4569 8.424C58.3636 8.35867 58.2142 8.28867 58.0089 8.214C57.8129 8.13 57.5562 8.046 57.2389 7.962C56.6976 7.822 56.2542 7.66333 55.9089 7.486C55.5636 7.30867 55.2976 7.108 55.1109 6.884C54.9709 6.70667 54.8682 6.51533 54.8029 6.31C54.7376 6.09533 54.7049 5.862 54.7049 5.61C54.7049 5.302 54.7702 5.022 54.9009 4.77C55.0409 4.50867 55.2276 4.28467 55.4609 4.098C55.7036 3.902 55.9836 3.75267 56.3009 3.65C56.6276 3.54733 56.9729 3.496 57.3369 3.496C57.6822 3.496 58.0229 3.54267 58.3589 3.636C58.7042 3.72933 59.0216 3.86467 59.3109 4.042C59.6002 4.21933 59.8429 4.42933 60.0389 4.672L59.2129 5.582C59.0356 5.40467 58.8396 5.25067 58.6249 5.12C58.4196 4.98 58.2096 4.87267 57.9949 4.798C57.7802 4.72333 57.5842 4.686 57.4069 4.686C57.2109 4.686 57.0336 4.70467 56.8749 4.742C56.7162 4.77933 56.5809 4.83533 56.4689 4.91C56.3662 4.98467 56.2869 5.078 56.2309 5.19C56.1749 5.302 56.1469 5.428 56.1469 5.568C56.1562 5.68933 56.1842 5.806 56.2309 5.918C56.2869 6.02067 56.3616 6.10933 56.4549 6.184C56.5576 6.25867 56.7116 6.338 56.9169 6.422C57.1222 6.506 57.3836 6.58533 57.7009 6.66C58.1676 6.78133 58.5502 6.91667 58.8489 7.066C59.1569 7.206 59.3996 7.36933 59.5769 7.556C59.7636 7.73333 59.8942 7.93867 59.9689 8.172C60.0436 8.40533 60.0809 8.66667 60.0809 8.956C60.0809 9.376 59.9596 9.754 59.7169 10.09C59.4836 10.4167 59.1662 10.6733 58.7649 10.86C58.3636 11.0467 57.9156 11.14 57.4209 11.14ZM64.2461 11.14C63.7234 11.14 63.2661 11.0187 62.8741 10.776C62.4914 10.5333 62.1928 10.1927 61.9781 9.754C61.7728 9.31533 61.6701 8.79267 61.6701 8.186V3.65H63.1121V7.794C63.1121 8.22333 63.1774 8.59667 63.3081 8.914C63.4481 9.222 63.6441 9.46 63.8961 9.628C64.1574 9.796 64.4701 9.88 64.8341 9.88C65.1048 9.88 65.3521 9.838 65.5761 9.754C65.8001 9.66067 65.9914 9.53467 66.1501 9.376C66.3181 9.21733 66.4488 9.026 66.5421 8.802C66.6354 8.578 66.6821 8.33533 66.6821 8.074V3.65H68.1241V11H66.6821V9.46L66.9341 9.292C66.8221 9.63733 66.6308 9.95 66.3601 10.23C66.0988 10.51 65.7861 10.734 65.4221 10.902C65.0581 11.0607 64.6661 11.14 64.2461 11.14ZM70.1747 11V0.64H71.6167V11H70.1747ZM74.5293 11V1.774H75.9713V11H74.5293ZM73.0033 5.05V3.65H77.6793V5.05H73.0033ZM82.6082 6.366V5.106H89.1322V6.366H82.6082ZM82.6082 9.012V7.766H89.1322V9.012H82.6082ZM97.5977 11.14C96.9911 11.14 96.4357 10.972 95.9317 10.636C95.4371 10.3 95.0404 9.84267 94.7417 9.264C94.4431 8.68533 94.2937 8.032 94.2937 7.304C94.2937 6.56667 94.4431 5.91333 94.7417 5.344C95.0497 4.76533 95.4604 4.31267 95.9737 3.986C96.4964 3.65933 97.0797 3.496 97.7237 3.496C98.1064 3.496 98.4564 3.552 98.7737 3.664C99.0911 3.776 99.3664 3.93467 99.5997 4.14C99.8424 4.336 100.038 4.56467 100.188 4.826C100.346 5.08733 100.444 5.36733 100.482 5.666L100.16 5.554V3.65H101.616V11H100.16V9.25L100.496 9.152C100.44 9.404 100.323 9.65133 100.146 9.894C99.9777 10.1273 99.7584 10.3373 99.4877 10.524C99.2264 10.7107 98.9324 10.86 98.6057 10.972C98.2884 11.084 97.9524 11.14 97.5977 11.14ZM97.9757 9.81C98.4144 9.81 98.8017 9.70267 99.1377 9.488C99.4737 9.27333 99.7351 8.97933 99.9217 8.606C100.118 8.22333 100.216 7.78933 100.216 7.304C100.216 6.828 100.118 6.40333 99.9217 6.03C99.7351 5.65667 99.4737 5.36267 99.1377 5.148C98.8017 4.93333 98.4144 4.826 97.9757 4.826C97.5464 4.826 97.1637 4.93333 96.8277 5.148C96.5011 5.36267 96.2397 5.65667 96.0437 6.03C95.8571 6.40333 95.7637 6.828 95.7637 7.304C95.7637 7.78933 95.8571 8.22333 96.0437 8.606C96.2397 8.97933 96.5011 9.27333 96.8277 9.488C97.1637 9.70267 97.5464 9.81 97.9757 9.81ZM105.353 11L102.847 3.65L104.303 3.636L106.095 9.138L105.773 9.11L107.719 4.812H108.587L110.547 9.124L110.169 9.152L111.975 3.65H113.431L110.953 11H109.959L107.915 6.324L108.237 6.366L106.333 11H105.353ZM117.367 11.14C116.761 11.14 116.205 10.972 115.701 10.636C115.207 10.3 114.81 9.84267 114.511 9.264C114.213 8.68533 114.063 8.032 114.063 7.304C114.063 6.56667 114.213 5.91333 114.511 5.344C114.819 4.76533 115.23 4.31267 115.743 3.986C116.266 3.65933 116.849 3.496 117.493 3.496C117.876 3.496 118.226 3.552 118.543 3.664C118.861 3.776 119.136 3.93467 119.369 4.14C119.612 4.336 119.808 4.56467 119.957 4.826C120.116 5.08733 120.214 5.36733 120.251 5.666L119.929 5.554V3.65H121.385V11H119.929V9.25L120.265 9.152C120.209 9.404 120.093 9.65133 119.915 9.894C119.747 10.1273 119.528 10.3373 119.257 10.524C118.996 10.7107 118.702 10.86 118.375 10.972C118.058 11.084 117.722 11.14 117.367 11.14ZM117.745 9.81C118.184 9.81 118.571 9.70267 118.907 9.488C119.243 9.27333 119.505 8.97933 119.691 8.606C119.887 8.22333 119.985 7.78933 119.985 7.304C119.985 6.828 119.887 6.40333 119.691 6.03C119.505 5.65667 119.243 5.36267 118.907 5.148C118.571 4.93333 118.184 4.826 117.745 4.826C117.316 4.826 116.933 4.93333 116.597 5.148C116.271 5.36267 116.009 5.65667 115.813 6.03C115.627 6.40333 115.533 6.828 115.533 7.304C115.533 7.78933 115.627 8.22333 115.813 8.606C116.009 8.97933 116.271 9.27333 116.597 9.488C116.933 9.70267 117.316 9.81 117.745 9.81ZM123.637 11V3.65H125.079V11H123.637ZM124.337 2.026C124.029 2.026 123.791 1.94667 123.623 1.788C123.455 1.62933 123.371 1.40533 123.371 1.116C123.371 0.845333 123.455 0.626 123.623 0.458C123.8 0.29 124.038 0.206 124.337 0.206C124.645 0.206 124.883 0.285333 125.051 0.444C125.219 0.602666 125.303 0.826666 125.303 1.116C125.303 1.38667 125.214 1.606 125.037 1.774C124.869 1.942 124.635 2.026 124.337 2.026ZM128.205 11V1.774H129.647V11H128.205ZM126.679 5.05V3.65H131.355V5.05H126.679ZM140.932 11.14C140.251 11.14 139.625 11.0187 139.056 10.776C138.487 10.5333 137.992 10.188 137.572 9.74C137.152 9.28267 136.825 8.746 136.592 8.13C136.368 7.514 136.256 6.83733 136.256 6.1C136.256 5.4 136.377 4.75133 136.62 4.154C136.872 3.54733 137.217 3.01533 137.656 2.558C138.095 2.10067 138.603 1.746 139.182 1.494C139.761 1.242 140.386 1.116 141.058 1.116C141.534 1.116 141.996 1.19067 142.444 1.34C142.901 1.48 143.312 1.68067 143.676 1.942C144.049 2.194 144.353 2.48333 144.586 2.81L143.578 3.86C143.307 3.58933 143.032 3.36533 142.752 3.188C142.481 3.00133 142.201 2.86133 141.912 2.768C141.632 2.67467 141.347 2.628 141.058 2.628C140.601 2.628 140.171 2.71667 139.77 2.894C139.378 3.062 139.033 3.3 138.734 3.608C138.445 3.916 138.216 4.28467 138.048 4.714C137.88 5.134 137.796 5.596 137.796 6.1C137.796 6.632 137.875 7.11733 138.034 7.556C138.202 7.98533 138.435 8.354 138.734 8.662C139.033 8.97 139.387 9.208 139.798 9.376C140.218 9.53467 140.68 9.614 141.184 9.614C141.492 9.614 141.795 9.572 142.094 9.488C142.393 9.404 142.673 9.28267 142.934 9.124C143.195 8.96533 143.433 8.77867 143.648 8.564L144.404 9.796C144.189 10.048 143.895 10.2767 143.522 10.482C143.158 10.6873 142.747 10.8507 142.29 10.972C141.842 11.084 141.389 11.14 140.932 11.14ZM149.398 11.14C148.679 11.14 148.035 10.9767 147.466 10.65C146.906 10.314 146.463 9.86133 146.136 9.292C145.809 8.71333 145.646 8.05533 145.646 7.318C145.646 6.58067 145.809 5.92733 146.136 5.358C146.463 4.77933 146.906 4.32667 147.466 4C148.035 3.664 148.679 3.496 149.398 3.496C150.107 3.496 150.742 3.664 151.302 4C151.871 4.32667 152.319 4.77933 152.646 5.358C152.973 5.92733 153.136 6.58067 153.136 7.318C153.136 8.05533 152.973 8.71333 152.646 9.292C152.319 9.86133 151.871 10.314 151.302 10.65C150.742 10.9767 150.107 11.14 149.398 11.14ZM149.398 9.824C149.837 9.824 150.229 9.71667 150.574 9.502C150.919 9.278 151.19 8.97933 151.386 8.606C151.582 8.22333 151.675 7.794 151.666 7.318C151.675 6.83267 151.582 6.40333 151.386 6.03C151.19 5.64733 150.919 5.34867 150.574 5.134C150.229 4.91933 149.837 4.812 149.398 4.812C148.959 4.812 148.563 4.924 148.208 5.148C147.863 5.36267 147.592 5.66133 147.396 6.044C147.2 6.41733 147.107 6.842 147.116 7.318C147.107 7.794 147.2 8.22333 147.396 8.606C147.592 8.97933 147.863 9.278 148.208 9.502C148.563 9.71667 148.959 9.824 149.398 9.824ZM154.707 11V3.65H156.149V5.162L155.897 5.33C155.991 5.00333 156.173 4.70467 156.443 4.434C156.714 4.154 157.036 3.93 157.409 3.762C157.783 3.58467 158.165 3.496 158.557 3.496C159.117 3.496 159.584 3.608 159.957 3.832C160.331 4.04667 160.611 4.378 160.797 4.826C160.984 5.274 161.077 5.83867 161.077 6.52V11H159.635V6.618C159.635 6.198 159.579 5.85267 159.467 5.582C159.355 5.302 159.183 5.10133 158.949 4.98C158.716 4.84933 158.427 4.79333 158.081 4.812C157.801 4.812 157.545 4.85867 157.311 4.952C157.078 5.036 156.873 5.15733 156.695 5.316C156.527 5.47467 156.392 5.66133 156.289 5.876C156.196 6.08133 156.149 6.30533 156.149 6.548V11H155.435C155.314 11 155.193 11 155.071 11C154.95 11 154.829 11 154.707 11ZM163.943 11V1.774H165.385V11H163.943ZM162.417 5.05V3.65H167.093V5.05H162.417ZM168.406 11V3.65H169.862V5.96L169.722 5.4C169.825 5.04533 169.998 4.72333 170.24 4.434C170.492 4.14467 170.777 3.916 171.094 3.748C171.421 3.58 171.757 3.496 172.102 3.496C172.261 3.496 172.41 3.51 172.55 3.538C172.7 3.566 172.816 3.59867 172.9 3.636L172.522 5.204C172.41 5.15733 172.284 5.12 172.144 5.092C172.014 5.05467 171.883 5.036 171.752 5.036C171.5 5.036 171.258 5.08733 171.024 5.19C170.8 5.28333 170.6 5.41867 170.422 5.596C170.254 5.764 170.119 5.96467 170.016 6.198C169.914 6.422 169.862 6.66933 169.862 6.94V11H168.406ZM176.566 11.14C175.96 11.14 175.404 10.972 174.9 10.636C174.406 10.3 174.009 9.84267 173.71 9.264C173.412 8.68533 173.262 8.032 173.262 7.304C173.262 6.56667 173.412 5.91333 173.71 5.344C174.018 4.76533 174.429 4.31267 174.942 3.986C175.465 3.65933 176.048 3.496 176.692 3.496C177.075 3.496 177.425 3.552 177.742 3.664C178.06 3.776 178.335 3.93467 178.568 4.14C178.811 4.336 179.007 4.56467 179.156 4.826C179.315 5.08733 179.413 5.36733 179.45 5.666L179.128 5.554V3.65H180.584V11H179.128V9.25L179.464 9.152C179.408 9.404 179.292 9.65133 179.114 9.894C178.946 10.1273 178.727 10.3373 178.456 10.524C178.195 10.7107 177.901 10.86 177.574 10.972C177.257 11.084 176.921 11.14 176.566 11.14ZM176.944 9.81C177.383 9.81 177.77 9.70267 178.106 9.488C178.442 9.27333 178.704 8.97933 178.89 8.606C179.086 8.22333 179.184 7.78933 179.184 7.304C179.184 6.828 179.086 6.40333 178.89 6.03C178.704 5.65667 178.442 5.36267 178.106 5.148C177.77 4.93333 177.383 4.826 176.944 4.826C176.515 4.826 176.132 4.93333 175.796 5.148C175.47 5.36267 175.208 5.65667 175.012 6.03C174.826 6.40333 174.732 6.828 174.732 7.304C174.732 7.78933 174.826 8.22333 175.012 8.606C175.208 8.97933 175.47 9.27333 175.796 9.488C176.132 9.70267 176.515 9.81 176.944 9.81ZM185.72 11.14C185.039 11.14 184.427 10.972 183.886 10.636C183.354 10.3 182.929 9.84267 182.612 9.264C182.304 8.68533 182.15 8.03667 182.15 7.318C182.15 6.59933 182.304 5.95067 182.612 5.372C182.929 4.79333 183.354 4.336 183.886 4C184.427 3.664 185.039 3.496 185.72 3.496C186.373 3.496 186.966 3.63133 187.498 3.902C188.039 4.16333 188.45 4.52267 188.73 4.98L187.932 5.96C187.783 5.74533 187.591 5.54933 187.358 5.372C187.125 5.19467 186.877 5.05467 186.616 4.952C186.355 4.84933 186.103 4.798 185.86 4.798C185.412 4.798 185.011 4.91 184.656 5.134C184.311 5.34867 184.035 5.64733 183.83 6.03C183.625 6.41267 183.522 6.842 183.522 7.318C183.522 7.794 183.629 8.22333 183.844 8.606C184.059 8.97933 184.343 9.278 184.698 9.502C185.053 9.726 185.445 9.838 185.874 9.838C186.126 9.838 186.369 9.796 186.602 9.712C186.845 9.628 187.078 9.502 187.302 9.334C187.526 9.166 187.736 8.96067 187.932 8.718L188.73 9.698C188.431 10.118 188.002 10.4633 187.442 10.734C186.891 11.0047 186.317 11.14 185.72 11.14ZM191 11V1.774H192.442V11H191ZM189.474 5.05V3.65H194.15V5.05H189.474ZM196.051 11.154C195.743 11.154 195.505 11.0653 195.337 10.888C195.169 10.7013 195.085 10.44 195.085 10.104C195.085 9.796 195.174 9.544 195.351 9.348C195.528 9.152 195.762 9.054 196.051 9.054C196.359 9.054 196.597 9.14733 196.765 9.334C196.933 9.51133 197.017 9.768 197.017 10.104C197.017 10.412 196.928 10.664 196.751 10.86C196.574 11.056 196.34 11.154 196.051 11.154ZM198.621 11V3.65H200.077V5.218L199.811 5.386C199.885 5.14333 200.002 4.91 200.161 4.686C200.329 4.462 200.529 4.266 200.763 4.098C201.005 3.92067 201.262 3.78067 201.533 3.678C201.813 3.57533 202.097 3.524 202.387 3.524C202.807 3.524 203.175 3.594 203.493 3.734C203.81 3.874 204.071 4.084 204.277 4.364C204.482 4.644 204.631 4.994 204.725 5.414L204.501 5.358L204.599 5.12C204.701 4.90533 204.841 4.70467 205.019 4.518C205.205 4.322 205.415 4.14933 205.649 4C205.882 3.85067 206.129 3.734 206.391 3.65C206.652 3.566 206.909 3.524 207.161 3.524C207.711 3.524 208.164 3.636 208.519 3.86C208.883 4.084 209.153 4.42467 209.331 4.882C209.517 5.33933 209.611 5.90867 209.611 6.59V11H208.155V6.674C208.155 6.254 208.099 5.91333 207.987 5.652C207.884 5.38133 207.725 5.18067 207.511 5.05C207.296 4.91933 207.021 4.854 206.685 4.854C206.423 4.854 206.176 4.90067 205.943 4.994C205.719 5.078 205.523 5.19933 205.355 5.358C205.187 5.51667 205.056 5.70333 204.963 5.918C204.869 6.12333 204.823 6.352 204.823 6.604V11H203.367V6.646C203.367 6.26333 203.311 5.94133 203.199 5.68C203.087 5.40933 202.923 5.204 202.709 5.064C202.494 4.924 202.233 4.854 201.925 4.854C201.663 4.854 201.421 4.90067 201.197 4.994C200.973 5.078 200.777 5.19933 200.609 5.358C200.441 5.50733 200.31 5.68933 200.217 5.904C200.123 6.10933 200.077 6.33333 200.077 6.576V11H198.621ZM211.779 11V3.65H213.221V11H211.779ZM212.479 2.026C212.171 2.026 211.933 1.94667 211.765 1.788C211.597 1.62933 211.513 1.40533 211.513 1.116C211.513 0.845333 211.597 0.626 211.765 0.458C211.943 0.29 212.181 0.206 212.479 0.206C212.787 0.206 213.025 0.285333 213.193 0.444C213.361 0.602666 213.445 0.826666 213.445 1.116C213.445 1.38667 213.357 1.606 213.179 1.774C213.011 1.942 212.778 2.026 212.479 2.026ZM215.438 11V3.65H216.88V5.162L216.628 5.33C216.721 5.00333 216.903 4.70467 217.174 4.434C217.444 4.154 217.766 3.93 218.14 3.762C218.513 3.58467 218.896 3.496 219.288 3.496C219.848 3.496 220.314 3.608 220.688 3.832C221.061 4.04667 221.341 4.378 221.528 4.826C221.714 5.274 221.808 5.83867 221.808 6.52V11H220.366V6.618C220.366 6.198 220.31 5.85267 220.198 5.582C220.086 5.302 219.913 5.10133 219.68 4.98C219.446 4.84933 219.157 4.79333 218.812 4.812C218.532 4.812 218.275 4.85867 218.042 4.952C217.808 5.036 217.603 5.15733 217.426 5.316C217.258 5.47467 217.122 5.66133 217.02 5.876C216.926 6.08133 216.88 6.30533 216.88 6.548V11H216.166C216.044 11 215.923 11 215.802 11C215.68 11 215.559 11 215.438 11ZM224.674 11V1.774H226.116V11H224.674ZM223.148 5.05V3.65H227.824V5.05H223.148ZM232.189 13.604C231.05 12.8947 230.182 12.008 229.585 10.944C228.988 9.88 228.689 8.69467 228.689 7.388C228.689 6.09067 228.988 4.91 229.585 3.846C230.192 2.77267 231.064 1.88133 232.203 1.172L232.973 2.04C232.021 2.70267 231.293 3.496 230.789 4.42C230.294 5.33467 230.047 6.324 230.047 7.388C230.047 8.452 230.294 9.446 230.789 10.37C231.293 11.2847 232.021 12.0733 232.973 12.736L232.189 13.604ZM234.306 13.604L233.536 12.736C234.488 12.0733 235.211 11.2847 235.706 10.37C236.21 9.446 236.462 8.452 236.462 7.388C236.462 6.324 236.21 5.33467 235.706 4.42C235.211 3.496 234.488 2.70267 233.536 2.04L234.32 1.172C235.459 1.88133 236.327 2.768 236.924 3.832C237.521 4.896 237.82 6.08133 237.82 7.388C237.82 8.68533 237.517 9.87067 236.91 10.944C236.313 12.008 235.445 12.8947 234.306 13.604Z" fill="white"/>
</svg>
